<mxfile host="app.diagrams.net" agent="Mozilla/5.0 (Windows NT 10.0; Win64; x64) AppleWebKit/537.36 (KHTML, like Gecko) Chrome/127.0.0.0 Safari/537.36 OPR/113.0.0.0" version="24.7.14">
  <diagram name="PÃ¡gina-1" id="QK7Z39SS1BUP8OvVokDA">
    <mxGraphModel dx="2033" dy="1205" grid="0" gridSize="10" guides="1" tooltips="1" connect="1" arrows="1" fold="1" page="0" pageScale="1" pageWidth="827" pageHeight="1169" math="0" shadow="0">
      <root>
        <mxCell id="0" />
        <mxCell id="1" parent="0" />
        <mxCell id="k9K6R06WONLo0VyArDje-1" value="CLIENTE" style="rounded=1;whiteSpace=wrap;html=1;" vertex="1" parent="1">
          <mxGeometry x="97" y="-23" width="120" height="60" as="geometry" />
        </mxCell>
        <mxCell id="k9K6R06WONLo0VyArDje-2" value="CUENTA" style="rounded=1;whiteSpace=wrap;html=1;" vertex="1" parent="1">
          <mxGeometry x="300" y="-23" width="120" height="60" as="geometry" />
        </mxCell>
        <mxCell id="k9K6R06WONLo0VyArDje-3" value="TRANSACCION" style="rounded=1;whiteSpace=wrap;html=1;" vertex="1" parent="1">
          <mxGeometry x="97" y="117" width="120" height="60" as="geometry" />
        </mxCell>
        <mxCell id="k9K6R06WONLo0VyArDje-4" value="TARJETA_CREDITO&lt;div&gt;&lt;br&gt;&lt;/div&gt;" style="rounded=1;whiteSpace=wrap;html=1;" vertex="1" parent="1">
          <mxGeometry x="476" y="98" width="120" height="60" as="geometry" />
        </mxCell>
        <mxCell id="k9K6R06WONLo0VyArDje-5" value="TIPO_CUENTA" style="rounded=1;whiteSpace=wrap;html=1;" vertex="1" parent="1">
          <mxGeometry x="476" y="-23" width="120" height="60" as="geometry" />
        </mxCell>
        <mxCell id="k9K6R06WONLo0VyArDje-6" value="SUCURSAL_AGENCIA" style="rounded=1;whiteSpace=wrap;html=1;" vertex="1" parent="1">
          <mxGeometry x="307" y="277" width="134" height="65" as="geometry" />
        </mxCell>
        <mxCell id="k9K6R06WONLo0VyArDje-7" value="ROL" style="rounded=1;whiteSpace=wrap;html=1;" vertex="1" parent="1">
          <mxGeometry x="502" y="396" width="120" height="60" as="geometry" />
        </mxCell>
        <mxCell id="k9K6R06WONLo0VyArDje-8" value="TIPO_TRANSACCION" style="rounded=1;whiteSpace=wrap;html=1;" vertex="1" parent="1">
          <mxGeometry x="92" y="261" width="130" height="60" as="geometry" />
        </mxCell>
        <mxCell id="k9K6R06WONLo0VyArDje-9" value="DEPARTAMENTO" style="rounded=1;whiteSpace=wrap;html=1;" vertex="1" parent="1">
          <mxGeometry x="668" y="279.5" width="120" height="60" as="geometry" />
        </mxCell>
        <mxCell id="k9K6R06WONLo0VyArDje-10" value="EMPLEADO" style="rounded=1;whiteSpace=wrap;html=1;" vertex="1" parent="1">
          <mxGeometry x="314" y="396" width="120" height="60" as="geometry" />
        </mxCell>
        <mxCell id="k9K6R06WONLo0VyArDje-11" value="MUNICIPIO" style="rounded=1;whiteSpace=wrap;html=1;" vertex="1" parent="1">
          <mxGeometry x="668" y="405" width="120" height="60" as="geometry" />
        </mxCell>
        <mxCell id="k9K6R06WONLo0VyArDje-12" value="PRESTAMO" style="rounded=1;whiteSpace=wrap;html=1;" vertex="1" parent="1">
          <mxGeometry x="-117" y="-23" width="120" height="60" as="geometry" />
        </mxCell>
        <mxCell id="k9K6R06WONLo0VyArDje-14" value="ESTADO_TARJETA" style="rounded=1;whiteSpace=wrap;html=1;" vertex="1" parent="1">
          <mxGeometry x="476" y="201" width="120" height="60" as="geometry" />
        </mxCell>
        <mxCell id="k9K6R06WONLo0VyArDje-15" value="ESTADO_PRESTAMO" style="rounded=1;whiteSpace=wrap;html=1;" vertex="1" parent="1">
          <mxGeometry x="-117" y="108" width="120" height="60" as="geometry" />
        </mxCell>
        <mxCell id="k9K6R06WONLo0VyArDje-19" value="" style="endArrow=none;html=1;rounded=0;fontSize=12;startSize=8;endSize=8;curved=1;entryX=0;entryY=0.5;entryDx=0;entryDy=0;exitX=1;exitY=0.5;exitDx=0;exitDy=0;" edge="1" parent="1" source="k9K6R06WONLo0VyArDje-12" target="k9K6R06WONLo0VyArDje-1">
          <mxGeometry width="50" height="50" relative="1" as="geometry">
            <mxPoint x="-7" y="57" as="sourcePoint" />
            <mxPoint x="62" y="4" as="targetPoint" />
          </mxGeometry>
        </mxCell>
        <mxCell id="k9K6R06WONLo0VyArDje-21" value="" style="endArrow=none;html=1;rounded=0;fontSize=12;startSize=8;endSize=8;curved=1;entryX=0.5;entryY=1;entryDx=0;entryDy=0;exitX=0.5;exitY=0;exitDx=0;exitDy=0;" edge="1" parent="1" source="k9K6R06WONLo0VyArDje-15" target="k9K6R06WONLo0VyArDje-12">
          <mxGeometry width="50" height="50" relative="1" as="geometry">
            <mxPoint x="177" y="326" as="sourcePoint" />
            <mxPoint x="227" y="276" as="targetPoint" />
          </mxGeometry>
        </mxCell>
        <mxCell id="k9K6R06WONLo0VyArDje-22" value="" style="endArrow=none;html=1;rounded=0;fontSize=12;startSize=8;endSize=8;curved=1;exitX=0.5;exitY=0;exitDx=0;exitDy=0;" edge="1" parent="1" source="k9K6R06WONLo0VyArDje-3">
          <mxGeometry width="50" height="50" relative="1" as="geometry">
            <mxPoint x="108" y="87" as="sourcePoint" />
            <mxPoint x="158" y="37" as="targetPoint" />
          </mxGeometry>
        </mxCell>
        <mxCell id="k9K6R06WONLo0VyArDje-23" value="" style="endArrow=none;html=1;rounded=0;fontSize=12;startSize=8;endSize=8;curved=1;exitX=0.5;exitY=0;exitDx=0;exitDy=0;entryX=0.5;entryY=1;entryDx=0;entryDy=0;" edge="1" parent="1" source="k9K6R06WONLo0VyArDje-8" target="k9K6R06WONLo0VyArDje-3">
          <mxGeometry width="50" height="50" relative="1" as="geometry">
            <mxPoint x="109" y="227" as="sourcePoint" />
            <mxPoint x="159" y="177" as="targetPoint" />
          </mxGeometry>
        </mxCell>
        <mxCell id="k9K6R06WONLo0VyArDje-24" value="" style="endArrow=none;html=1;rounded=0;fontSize=12;startSize=8;endSize=8;edgeStyle=orthogonalEdgeStyle;exitX=1;exitY=0.5;exitDx=0;exitDy=0;entryX=0.5;entryY=0;entryDx=0;entryDy=0;" edge="1" parent="1" source="k9K6R06WONLo0VyArDje-3" target="k9K6R06WONLo0VyArDje-6">
          <mxGeometry width="50" height="50" relative="1" as="geometry">
            <mxPoint x="238" y="156" as="sourcePoint" />
            <mxPoint x="348" y="301" as="targetPoint" />
            <Array as="points">
              <mxPoint x="273" y="147" />
              <mxPoint x="273" y="239" />
              <mxPoint x="374" y="239" />
            </Array>
          </mxGeometry>
        </mxCell>
        <mxCell id="k9K6R06WONLo0VyArDje-25" value="" style="endArrow=none;html=1;rounded=0;fontSize=12;startSize=8;endSize=8;curved=1;entryX=0;entryY=0.5;entryDx=0;entryDy=0;exitX=1;exitY=0.5;exitDx=0;exitDy=0;" edge="1" parent="1" source="k9K6R06WONLo0VyArDje-1" target="k9K6R06WONLo0VyArDje-2">
          <mxGeometry width="50" height="50" relative="1" as="geometry">
            <mxPoint x="209" y="5" as="sourcePoint" />
            <mxPoint x="263" y="-40" as="targetPoint" />
          </mxGeometry>
        </mxCell>
        <mxCell id="k9K6R06WONLo0VyArDje-26" value="" style="endArrow=none;html=1;rounded=0;fontSize=12;startSize=8;endSize=8;curved=1;entryX=0.5;entryY=0;entryDx=0;entryDy=0;exitX=0.5;exitY=1;exitDx=0;exitDy=0;" edge="1" parent="1" source="k9K6R06WONLo0VyArDje-1" target="k9K6R06WONLo0VyArDje-4">
          <mxGeometry width="50" height="50" relative="1" as="geometry">
            <mxPoint x="208" y="81" as="sourcePoint" />
            <mxPoint x="258" y="31" as="targetPoint" />
          </mxGeometry>
        </mxCell>
        <mxCell id="k9K6R06WONLo0VyArDje-27" value="" style="endArrow=none;html=1;rounded=0;fontSize=12;startSize=8;endSize=8;curved=1;exitX=0.5;exitY=0;exitDx=0;exitDy=0;entryX=0.5;entryY=1;entryDx=0;entryDy=0;" edge="1" parent="1" source="k9K6R06WONLo0VyArDje-14" target="k9K6R06WONLo0VyArDje-4">
          <mxGeometry width="50" height="50" relative="1" as="geometry">
            <mxPoint x="492" y="278" as="sourcePoint" />
            <mxPoint x="538" y="228" as="targetPoint" />
          </mxGeometry>
        </mxCell>
        <mxCell id="k9K6R06WONLo0VyArDje-28" value="" style="endArrow=none;html=1;rounded=0;fontSize=12;startSize=8;endSize=8;curved=1;entryX=0;entryY=0.5;entryDx=0;entryDy=0;exitX=1;exitY=0.5;exitDx=0;exitDy=0;" edge="1" parent="1" source="k9K6R06WONLo0VyArDje-2" target="k9K6R06WONLo0VyArDje-5">
          <mxGeometry width="50" height="50" relative="1" as="geometry">
            <mxPoint x="419" y="9" as="sourcePoint" />
            <mxPoint x="469" y="-41" as="targetPoint" />
          </mxGeometry>
        </mxCell>
        <mxCell id="k9K6R06WONLo0VyArDje-29" value="" style="endArrow=none;html=1;rounded=0;fontSize=12;startSize=8;endSize=8;curved=1;exitX=0.5;exitY=0;exitDx=0;exitDy=0;entryX=0.5;entryY=1;entryDx=0;entryDy=0;" edge="1" parent="1" source="k9K6R06WONLo0VyArDje-10" target="k9K6R06WONLo0VyArDje-6">
          <mxGeometry width="50" height="50" relative="1" as="geometry">
            <mxPoint x="335" y="381" as="sourcePoint" />
            <mxPoint x="385" y="331" as="targetPoint" />
          </mxGeometry>
        </mxCell>
        <mxCell id="k9K6R06WONLo0VyArDje-30" value="" style="endArrow=none;html=1;rounded=0;fontSize=12;startSize=8;endSize=8;curved=1;entryX=0;entryY=0.5;entryDx=0;entryDy=0;exitX=1;exitY=0.5;exitDx=0;exitDy=0;" edge="1" parent="1" source="k9K6R06WONLo0VyArDje-10" target="k9K6R06WONLo0VyArDje-7">
          <mxGeometry width="50" height="50" relative="1" as="geometry">
            <mxPoint x="434" y="427" as="sourcePoint" />
            <mxPoint x="484" y="377" as="targetPoint" />
          </mxGeometry>
        </mxCell>
        <mxCell id="k9K6R06WONLo0VyArDje-31" value="" style="endArrow=none;html=1;rounded=0;fontSize=12;startSize=8;endSize=8;curved=1;exitX=0.5;exitY=0;exitDx=0;exitDy=0;entryX=0.5;entryY=1;entryDx=0;entryDy=0;" edge="1" parent="1" source="k9K6R06WONLo0VyArDje-11" target="k9K6R06WONLo0VyArDje-9">
          <mxGeometry width="50" height="50" relative="1" as="geometry">
            <mxPoint x="671" y="392" as="sourcePoint" />
            <mxPoint x="732" y="351" as="targetPoint" />
          </mxGeometry>
        </mxCell>
        <mxCell id="k9K6R06WONLo0VyArDje-32" value="" style="endArrow=none;html=1;rounded=0;fontSize=12;startSize=8;endSize=8;curved=1;entryX=0;entryY=0.5;entryDx=0;entryDy=0;exitX=1;exitY=0.5;exitDx=0;exitDy=0;" edge="1" parent="1" source="k9K6R06WONLo0VyArDje-6" target="k9K6R06WONLo0VyArDje-9">
          <mxGeometry width="50" height="50" relative="1" as="geometry">
            <mxPoint x="441" y="309" as="sourcePoint" />
            <mxPoint x="491" y="259" as="targetPoint" />
          </mxGeometry>
        </mxCell>
        <mxCell id="k9K6R06WONLo0VyArDje-33" value="" style="endArrow=none;html=1;rounded=0;fontSize=12;startSize=8;endSize=8;curved=1;entryX=0;entryY=1;entryDx=0;entryDy=0;exitX=1;exitY=0;exitDx=0;exitDy=0;" edge="1" parent="1" source="k9K6R06WONLo0VyArDje-10" target="k9K6R06WONLo0VyArDje-9">
          <mxGeometry width="50" height="50" relative="1" as="geometry">
            <mxPoint x="433" y="401" as="sourcePoint" />
            <mxPoint x="483" y="351" as="targetPoint" />
          </mxGeometry>
        </mxCell>
      </root>
    </mxGraphModel>
  </diagram>
</mxfile>
